<?xml version="1.0" standalone="no"?><!DOCTYPE svg PUBLIC "-//W3C//DTD SVG 1.1//EN" "http://www.w3.org/Graphics/SVG/1.1/DTD/svg11.dtd"><svg t="1528820268819" class="icon" style="" viewBox="0 0 1024 1024" version="1.1" xmlns="http://www.w3.org/2000/svg" p-id="31455" xmlns:xlink="http://www.w3.org/1999/xlink" width="200" height="200"><defs><style type="text/css"></style></defs><path d="M629.610628 692.495864c-0.01535 0-0.030699 0.005117-0.045025 0.005117l0-0.270153-89.630367 0 0-54.483892 89.630367 0 0-0.289596c0.016373 0 0.030699 0.005117 0.045025 0.005117 10.736529 0 19.440771-8.704243 19.440771-19.440771 0-10.736529-8.704243-19.438725-19.440771-19.438725-0.01535 0-0.030699 0.005117-0.045025 0.005117l0-0.005117-76.323293 0L636.961036 444.449511l-0.030699-0.016373c3.055592-4.157693 4.919033-9.243525 4.919033-14.799054 0-13.859659-11.234879-25.094538-25.094538-25.094538-10.839883 0-19.990287 6.91141-23.49818 16.538675l-0.185218 0c0 0-72.384587 141.364635-75.728752 150.904918l-1.00591 0c-4.686742-11.883655-79.084173-150.904918-79.084173-150.904918l-0.189312 0c-3.406586-9.612938-12.483312-16.538675-23.26282-16.538675-13.681604 0-24.771173 11.089569-24.771173 24.77015 0 5.125741 1.557472 9.887184 4.224208 13.83817l-0.121773 0.065492 83.287915 155.367557-77.8296 0c-10.735505 0-19.438725 8.704243-19.438725 19.438725 0 10.737552 8.703219 19.440771 19.438725 19.440771l0 0.284479 92.390223 0 0 54.483892-92.390223 0 0 0.26606c-10.735505 0-19.438725 8.704243-19.438725 19.439748s8.703219 19.439748 19.438725 19.439748l0 0.26913 92.390223 0 0 78.334089 0.532119 0c-0.331551 1.606591-0.5137 3.269463-0.5137 4.975315 0 13.484106 10.930957 24.414039 24.415063 24.414039 13.484106 0 24.415063-10.930957 24.415063-24.414039 0-1.705851-0.181125-3.367701-0.5137-4.975315l0.623193 0 0-78.334089 89.629343 0 0-0.273223c0.01535 0 0.030699 0.005117 0.045025 0.005117 10.735505 0 19.440771-8.704243 19.440771-19.440771C649.052422 701.200106 640.347157 692.495864 629.610628 692.495864L629.610628 692.495864zM445.900559 324.854693c-44.878117-28.16241-80.407308-93.682659-80.407308-137.180336 0-61.921281 74.016761-74.873268 148.607596-74.873268 74.589812 0 153.459091 16.175401 153.459091 78.095659 0 43.848671-34.725896 105.071034-81.677231 133.957945l64.390519 0c35.801391-40.60786 58.048067-92.734054 58.048067-137.726781 0-89.046059-86.954421-116.254747-194.2184-116.254747s-194.2184 27.209712-194.2184 116.254747c0 44.992727 22.245653 97.118921 58.048067 137.726781L445.900559 324.854693 445.900559 324.854693zM655.44604 293.505707l-31.476899 18.198477-8.789177 13.150508c161.276127 58.71117 288.213167 247.90616 288.213167 385.199059 0 165.452239-177.74624 203.13549-389.292284 203.13549s-389.397684-35.947723-389.397684-201.39894c0-138.13201 125.443014-329.531202 288.209074-386.93561l-38.147832-32.212656C198.437491 365.651864 71.163783 564.085262 71.163783 717.316156c0 191.325513 198.309578 239.430114 442.937065 239.430114s442.940135-48.103578 442.940135-239.430114C957.039959 564.66957 830.724065 367.18887 655.44604 293.505707L655.44604 293.505707z" p-id="31456"></path><path d="M514.100848 962.374454c-139.579989 0-242.783489-15.851013-315.50679-48.459688-42.490743-19.052938-75.194586-44.355207-97.203856-75.202773-23.791869-33.345456-35.854603-74.188676-35.854603-121.394814 0-37.311791 7.268544-77.258595 21.60404-118.731148 14.100136-40.792055 34.31248-81.012082 60.077284-119.544677 53.196573-79.55694 125.099183-143.807267 203.022926-181.554986-22.930245-35.70213-35.985586-75.591629-35.985586-110.357434 0-43.75555 20.171412-76.233242 59.95551-96.532567 32.967856-16.821107 80.033801-25.350364 139.892097-25.350364s106.923218 8.529257 139.891074 25.350364c39.783075 20.298302 59.95551 52.777017 59.95551 96.532567 0 34.771945-13.06148 74.668607-35.998889 110.376876 77.92579 37.748742 149.83147 101.993952 203.031113 181.544753 25.76685 38.529525 45.981241 78.748528 60.0824 119.537514 14.33652 41.47153 21.605064 81.417311 21.605064 118.729102 0 47.206138-12.063757 88.049359-35.855626 121.395838-22.00927 30.848589-54.714136 56.148811-97.203856 75.201749C756.884336 946.523441 653.68186 962.374454 514.100848 962.374454zM356.597651 306.918181C201.922872 381.186675 76.790944 564.234665 76.790944 717.317179c0 159.5099 138.957819 233.80193 437.308881 233.80193 298.353109 0 437.31195-74.29203 437.31195-233.80193 0-153.071258-125.138068-336.110037-279.821033-410.379555-5.321192 7.52744-11.05887 14.790868-17.0974 21.638833l-1.680269 1.906419L643.612527 330.482877c67.180052 30.896684 130.541125 84.789105 180.713828 154.206104 53.824883 74.471109 84.694961 156.61292 84.694961 225.364771 0 40.939411-10.831696 76.234265-32.193213 104.903212-19.62599 26.337855-48.746214 47.833425-86.551238 63.890122-63.331397 26.89658-153.668869 39.971363-276.176017 39.971363-124.696 0-212.46088-12.421914-276.200576-39.09132-37.842887-15.83464-66.981531-37.127595-86.60445-63.290465-21.379936-28.504194-32.220842-63.712067-32.220842-104.645338 0-69.530586 30.659277-152.275125 84.117816-227.015364 50.019207-69.932746 113.351628-123.836423 180.670849-154.293085l-8.473999 0-1.680269-1.906419C367.665731 321.722352 361.924983 314.453808 356.597651 306.918181zM413.880285 330.482877c-74.843592 26.650987-146.384975 83.73817-201.531969 160.841222-52.123125 72.873728-82.016968 153.231917-82.016968 220.467227 0 135.39262 118.358665 195.770755 383.7695 195.770755 120.965026 0 209.863728-12.781094 271.7758-39.07597 75.28873-31.975249 111.8883-83.798545 111.8883-158.431336 0-66.437132-30.092365-146.176221-82.561367-218.771609-55.190997-76.361155-126.549208-133.431965-201.020316-160.800289l-48.189535 0 16.939811-10.422374c0.323365-0.199545 0.64673-0.400113 0.970094-0.602727l-0.636496-0.231267 1.003863 0c42.945091-27.152407 77.660754-84.36341 77.660754-128.32976 0-25.674753-15.222703-44.86993-45.246507-57.05239-24.853038-10.084683-60.325947-15.415085-102.5844-15.415085-96.210225 0-142.979412 22.649859-142.979412 69.245084 0 20.321838 8.248871 46.399773 22.63144 71.546499 15.111163 26.419719 34.69315 48.03604 55.138808 60.866253l16.565281 10.395768L413.880285 330.482877zM625.710808 319.226508l22.002107 0c4.716418-5.464455 9.231245-11.1919 13.482059-17.098423-1.785669-0.796132-3.575432-1.578961-5.362124-2.344395l-27.9117 16.137539L625.710808 319.226508zM603.603301 319.226508l8.568143 0 7.845689-11.739369 35.031864-20.253276 2.578732 1.083681c3.333932 1.401929 6.692423 2.866281 10.030447 4.373611 22.309098-34.253128 35.032888-72.483848 35.032888-105.562221 0-39.732933-17.602913-68.029396-53.81465-86.506213-31.368428-16.004509-76.713172-24.12035-134.775566-24.12035-58.062394 0-103.407138 8.115841-134.775566 24.12035-36.211736 18.476817-53.81465 46.77328-53.81465 86.506213 0 33.073256 12.718673 71.295789 35.020608 105.542778 4.015454-1.813299 8.06263-3.565199 12.08013-5.228071l3.166109-1.310855 39.193651 33.094746 13.687744 0c-38.000476-31.625278-68.794829-88.919169-68.794829-131.552152 0-30.662347 16.787338-52.831252 49.895387-65.892733 24.918529-9.829879 59.048861-14.608719 104.340393-14.608719 44.320415 0 80.257905 5.464455 106.816794 16.240893 34.684964 14.07353 52.270481 36.777625 52.270481 67.482951C673.187099 233.598292 643.097804 287.714817 603.603301 319.226508zM380.489804 319.226508l17.033955 0-23.759123-20.061918c-2.25639 0.957815-4.516874 1.940189-6.770194 2.944052C371.248326 308.023352 375.767246 313.755913 380.489804 319.226508zM515.414773 844.998163c-16.34834 0-29.688159-13.123902-30.037107-29.390377l-0.025583 0 0-78.334089-92.390223 0 0-0.906649c-11.121292-2.561335-19.439748-12.543687-19.439748-24.431435s8.317433-21.8701 19.439748-24.431435l0-0.902556 92.390223 0 0-43.227524-92.390223 0 0-0.921999c-11.121292-2.561335-19.439748-12.542664-19.439748-24.431435 0-13.821797 11.245112-25.066909 25.067932-25.066909l68.426439 0-81.494059-152.022369 0.148379-0.079818c-1.494027-3.635807-2.26867-7.543813-2.26867-11.541871 0-16.761756 13.637602-30.398334 30.399357-30.398334 12.140505 0 23.103184 7.349385 27.861558 18.476817l0.553609 1.034563c2.654456 4.959965 57.393151 107.274212 74.525344 141.394311 15.761985-32.734542 64.931848-128.826064 71.321372-141.30426l0.856507-1.672082c4.970198-10.819416 15.862269-17.929348 27.836999-17.929348 16.940834 0 30.721699 13.781888 30.721699 30.722722 0 6.285147-1.937119 12.345166-5.608741 17.571191l-79.165014 145.747455 72.489988 0 0 0.626263c11.145851 2.542916 19.48682 12.536524 19.48682 24.440645 0 11.905144-8.340969 21.898753-19.48682 24.442692l0 0.911766-89.629343 0 0 43.227524 89.629343 0 0 0.8913c11.143805 2.543939 19.48682 12.537548 19.488867 24.441669 0 11.906168-8.340969 21.898753-19.485797 24.444738l0 0.89437-89.630367 0 0 78.334089-0.115634 0C545.100886 831.874261 531.761066 844.998163 515.414773 844.998163zM496.608451 804.351418l1.814322 0-1.39886 6.768147c-0.264013 1.274016-0.397043 2.564405-0.397043 3.834328 0 10.358929 8.42795 18.786878 18.787902 18.786878 10.358929 0 18.785855-8.42795 18.785855-18.786878 0-1.270946-0.134053-2.561335-0.397043-3.834328l-1.400906-6.768147 1.906419 0 0-78.334089 89.630367 0 0-0.274246 6.083555 0c7.427156-0.217964 13.402241-6.328126 13.402241-13.807471-0.001023-7.517207-6.03853-13.651928-13.518898-13.809517l-5.969968 0.002047 0-0.270153-89.629343 0 0-65.74026 89.629343 0 0-0.289596 6.045693 0c7.445576-0.197498 13.441127-6.315846 13.441127-13.807471 0-7.515161-6.034437-13.647835-13.513782-13.807471l-5.973038 0.002047 0-0.005117-80.156598 0 85.562724-157.527756-0.717338-0.394996 3.770883-5.187139c2.501984-3.40454 3.825119-7.369851 3.825119-11.465123 0-10.734482-8.731872-19.466354-19.465331-19.466354-8.094352 0-15.414061 5.15951-18.210757 12.837376l-1.348718 3.701299-0.682545 0c-29.016871 56.695257-71.54036 140.523477-73.859171 147.138128l-1.320065 3.76679-8.827039 0-1.404999-3.563152c-3.539616-8.974395-51.14382-98.586342-77.220732-147.340743l-0.794086 0-1.328251-3.748371c-2.710738-7.650237-9.928117-12.790304-17.958-12.790304-10.555403 0-19.142989 8.587586-19.142989 19.141966 0 3.833305 1.127683 7.529487 3.261277 10.69048l3.472078 5.145184-0.649799 0.352017 85.081771 158.713768-87.23276 0c-7.615445 0-13.811564 6.196119-13.811564 13.81054 0 7.615445 6.196119 13.812587 13.811564 13.812587l5.628184 0 0 0.284479 92.390223 0 0 65.74026-92.390223 0 0 0.26606-5.628184 0c-7.615445 0-13.811564 6.196119-13.811564 13.811564s6.196119 13.811564 13.811564 13.811564l5.628184 0 0 0.270153 92.390223 0L496.609475 804.351418z" p-id="31457"></path></svg>