<?xml version="1.0" standalone="no"?><!DOCTYPE svg PUBLIC "-//W3C//DTD SVG 1.1//EN" "http://www.w3.org/Graphics/SVG/1.1/DTD/svg11.dtd"><svg t="1528820245372" class="icon" style="" viewBox="0 0 1024 1024" version="1.1" xmlns="http://www.w3.org/2000/svg" p-id="31016" xmlns:xlink="http://www.w3.org/1999/xlink" width="200" height="200"><defs><style type="text/css"></style></defs><path d="M577.7 935.6V634.1l247.7 1 16.5-16.2V172.4c0-13.9-3-23.8-9-29.5-6.7-6.4-16.3-6.4-17.6-6.4l-1 0.1-0.5-0.1H224.5c-16.8 0-28.3 5.8-35 17.7-4.8 8.5-5.7 17.3-5.8 18.6v683.9c0 23.2 6.1 30.5 8 32.1 0.9 0.8 1.9 1.4 3 1.6 0.4 0.1 0.6 0.1 0.6 0.1h-0.2c-0.2 0-0.9 0.1-0.9 0.1l2.4 19.9v-20h214.5v40H197.3c-5.3 0.3-19.2-0.2-32.1-11.6-14.3-12.6-21.5-33.5-21.5-62.1V171.6c0.1-1.9 1-19.3 10.9-37 13.8-24.6 38.6-38.1 69.8-38.1H813c5.7-0.3 28.2-0.2 46.6 16.6 14.7 13.5 22.2 33.5 22.2 59.2v463.3l-304.1 300z m40-261.3V840L785 675l-167.3-0.7z" fill="#A9A9A9" p-id="31017"></path><path d="M323 302.1h394.2v40H323zM323 486.1h394.2v40H323z" fill="#A9A9A9" p-id="31018"></path></svg>