<?xml version="1.0" standalone="no"?><!DOCTYPE svg PUBLIC "-//W3C//DTD SVG 1.1//EN" "http://www.w3.org/Graphics/SVG/1.1/DTD/svg11.dtd"><svg t="1528818556229" class="icon" style="" viewBox="0 0 1024 1024" version="1.1" xmlns="http://www.w3.org/2000/svg" p-id="30456" xmlns:xlink="http://www.w3.org/1999/xlink" width="200" height="200"><defs><style type="text/css"></style></defs><path d="M719.250286 36.571429 304.749714 36.571429C247.515429 36.571429 201.142857 85.686857 201.142857 146.285714l0 36.571429 0 603.428571L201.142857 804.571429l0 18.285714L201.142857 841.142857l0 36.571429c0 60.598857 46.409143 109.714286 103.606857 109.714286l414.464 0C776.448 987.428571 822.857143 938.313143 822.857143 877.714286l0-36.571429 0-18.285714L822.857143 804.571429l0-18.285714L822.857143 182.857143 822.857143 146.285714C822.857143 85.686857 776.448 36.571429 719.250286 36.571429zM339.309714 73.142857l345.380571 0c45.056 0 83.017143 30.610286 97.28 73.142857L242.029714 146.285714C256.292571 103.789714 294.253714 73.142857 339.309714 73.142857zM684.690286 950.857143 339.309714 950.857143c-57.234286 0-103.606857-49.115429-103.606857-109.714286l552.630857 0C788.333714 901.741714 741.924571 950.857143 684.690286 950.857143zM788.333714 804.571429 235.666286 804.571429 235.666286 182.857143l552.630857 0L788.333714 804.571429 788.333714 804.571429zM566.857143 877.714286 457.142857 877.714286l0 36.571429 109.714286 0L566.857143 877.714286zM493.714286 658.285714l36.571429 0 0-73.142857 109.714286 0 0-36.571429-109.714286 0 0-36.571429 109.714286 0 0-36.571429-83.858286 0L640 391.570286 640 367.542857 638.171429 365.714286l-24.027429 0L512 467.858286 409.856 365.714286 385.828571 365.714286 384 367.542857l0 24.027429L467.858286 475.428571 384 475.428571l0 36.571429 109.714286 0 0 36.571429L384 548.571429l0 36.571429 109.714286 0L493.714286 658.285714z" p-id="30457"></path></svg>