<?xml version="1.0" standalone="no"?><!DOCTYPE svg PUBLIC "-//W3C//DTD SVG 1.1//EN" "http://www.w3.org/Graphics/SVG/1.1/DTD/svg11.dtd"><svg t="1528820257488" class="icon" style="" viewBox="0 0 1024 1024" version="1.1" xmlns="http://www.w3.org/2000/svg" p-id="31236" xmlns:xlink="http://www.w3.org/1999/xlink" width="200" height="200"><defs><style type="text/css"></style></defs><path d="M578.1 199.9c0 11.4-2.9 22-7.9 31.4-11.9 1.7-91.3 1.7-117.3-1.6-4.5-8.9-7.1-19-7.1-29.7 0-36.5 29.6-66.1 66.1-66.1 36.6-0.1 66.2 29.5 66.2 66z" p-id="31237"></path><path d="M657.1 980c-6 0-9 0-142.7-65.8-1.5-0.7-3.3-0.8-4.8 0C375.8 980 372.8 980 366.9 980c-7.9 0-15.2-4-19.9-10.9-9.7-14.1-8.1-41.7-1-60.2 1.3-3.3 3-7.9 72.3-113.5l-18.9-218.3C101.8 629.6 93 629.6 89.2 629.6c-17 0-31.2-9.3-37.1-24.2-7.2-18.1-0.7-40.2 16.5-56.3 3.6-3.4 10.2-9.6 313.1-175.1l-10.5-121.8c-5.5-63.6 13.2-125.6 50.1-165.8C446.7 58.6 478.1 44 512.2 44s65.5 14.6 91 42.4c36.9 40.2 55.6 102.2 50.1 165.8l-10.6 122C945.2 539.5 951.8 545.7 955.4 549c17.2 16.1 23.7 38.2 16.5 56.3-5.9 15-20.1 24.2-37.1 24.2-3.8 0-12.6 0-309.7-52.4l-19 218.9C675 901 676.7 905.5 678 908.9c7.1 18.5 8.7 46.1-1 60.2-4.7 6.9-12 10.9-19.9 10.9zM458.2 797.7l0.2 2.9v5.9l-3.3 5c-61.2 93.3-71.3 110-72.7 112.9-1 2.6-1.7 5.5-2.1 8.4 22.3-10.4 62.1-29.7 111.7-54.1 12.7-6.2 27.2-6.2 39.8 0 49.6 24.4 89.3 43.6 111.6 54.1-0.5-3.1-1.3-6.4-2.5-9.5-1-1.7-10.9-18.3-71.9-111.2l-3.8-5.8 24-275.6 21.3 3.8C800.7 568.1 921.6 588.8 935 590c0-2-1.2-6.4-6.2-11.3-6.9-4.7-52.8-31.7-316.6-175.8l-11.4-6.2 12.8-147.8c4.5-52-10.7-103.9-39.8-135.6-12.3-13.5-33.1-29.5-61.7-29.5s-49.4 16-61.7 29.5c-29 31.7-44.3 83.6-39.8 135.6l12.8 147.6-11.4 6.2c-270 147.5-311.1 172-317 176.1-4.8 4.8-6.2 9.1-6.2 11.1 15.7-1.5 136.2-22.1 324.9-55.4l21.3-3.8 23.2 267z" p-id="31238"></path></svg>