<?xml version="1.0" standalone="no"?><!DOCTYPE svg PUBLIC "-//W3C//DTD SVG 1.1//EN" "http://www.w3.org/Graphics/SVG/1.1/DTD/svg11.dtd"><svg t="1528820221530" class="icon" style="" viewBox="0 0 1024 1024" version="1.1" xmlns="http://www.w3.org/2000/svg" p-id="30905" xmlns:xlink="http://www.w3.org/1999/xlink" width="200" height="200"><defs><style type="text/css"></style></defs><path d="M633.9 300.3h117.9v54.1H633.9zM277.1 430H395v54.1H277.1zM277.1 300.3H395v54.1H277.1zM277.1 543.5H395v54.1H277.1zM633.9 543.5h117.9v54.1H633.9zM455.5 300.3h117.9v54.1H455.5zM455.5 430h117.9v54.1H455.5z" p-id="30906"></path><path d="M169 230.3V776h319.4V599h63.9v177h319.4V230.3L520.4 70.6 169 230.3z m648.7 491.6H606.4V545h-172v176.9H223.1V265.1L520.4 130l297.3 135.1v456.8z" p-id="30907"></path><path d="M633.9 430h117.9v54.1H633.9z" p-id="30908"></path></svg>