<?xml version="1.0" standalone="no"?><!DOCTYPE svg PUBLIC "-//W3C//DTD SVG 1.1//EN" "http://www.w3.org/Graphics/SVG/1.1/DTD/svg11.dtd"><svg t="1528820128239" class="icon" style="" viewBox="0 0 1024 1024" version="1.1" xmlns="http://www.w3.org/2000/svg" p-id="30570" xmlns:xlink="http://www.w3.org/1999/xlink" width="200" height="200"><defs><style type="text/css"></style></defs><path d="M511.574 1016.945c-199.23 0-361.361-162.132-361.361-361.361 0-192.175 327.67-621.893 341.536-640.015 9.365-12.285 30.042-12.285 39.53 0 13.865 18.122 341.657 447.84 341.657 640.015 0 199.23-162.132 361.361-361.362 361.361z m0-944.819c-71.396 96.696-311.736 433.367-311.736 583.458 0 171.862 139.874 311.615 311.736 311.615s311.737-139.753 311.737-311.615c-0.122-150.091-240.34-486.762-311.737-583.458z m0 0" fill="" p-id="30571"></path><path d="M530.913 922.318c-10.581 0-20.312-6.812-23.717-17.393-4.136-13.136 3.04-27.002 16.176-31.26 99.615-31.745 176.12-110.682 204.946-211.148 3.77-13.258 17.637-21.042 30.773-17.028 13.136 3.77 20.798 17.514 17.028 30.772C742.792 792.782 653.88 884.369 538.454 921.1a23.292 23.292 0 0 1-7.54 1.217z m0 0" fill="" p-id="30572"></path></svg>