<?xml version="1.0" standalone="no"?><!DOCTYPE svg PUBLIC "-//W3C//DTD SVG 1.1//EN" "http://www.w3.org/Graphics/SVG/1.1/DTD/svg11.dtd"><svg t="1528820275410" class="icon" style="" viewBox="0 0 1024 1024" version="1.1" xmlns="http://www.w3.org/2000/svg" p-id="31565" xmlns:xlink="http://www.w3.org/1999/xlink" width="200" height="200"><defs><style type="text/css"></style></defs><path d="M435.985746 307.10033a54.924 54.94 0 1 0 112.408139 0 54.924 54.94 0 1 0-112.408139 0Z" p-id="31566"></path><path d="M289.254893 504.373299m-56.20407 0a54.924 54.924 0 1 0 112.408139 0 54.924 54.924 0 1 0-112.408139 0Z" p-id="31567"></path><path d="M697.889711 504.373299m-56.20407 0a54.924 54.924 0 1 0 112.408139 0 54.924 54.924 0 1 0-112.408139 0Z" p-id="31568"></path><path d="M786.512121 831.79342 665.875576 831.79342c118.012787-62.207807 198.672852-185.549973 198.672852-327.416028 0-204.26215-167.035294-370.447077-372.35452-370.447077s-372.35452 166.184927-372.35452 370.447077S286.874683 874.811166 492.193909 874.811166c5.79089 0 11.42726-0.603751 17.153682-0.864694l277.16453 0c11.636015 0 21.077038-9.441023 21.077038-21.077038C807.589159 841.234443 798.148136 831.79342 786.512121 831.79342zM505.59922 831.79342c-0.442068 0-0.811482 0.225127-1.24741 0.251733-4.068665 0.147356-8.054443 0.611937-12.158924 0.611937-182.074825 0-330.201467-147.261948-330.201467-328.279698s148.126642-328.294025 330.201467-328.294025 330.201467 147.276275 330.201467 328.294025c0 175.258583-138.961912 318.453912-313.038576 327.416028L505.59922 831.79342z" p-id="31569"></path><path d="M435.985746 693.964308a54.924 54.94 0 1 0 112.408139 0 54.924 54.94 0 1 0-112.408139 0Z" p-id="31570"></path></svg>