<?xml version="1.0" standalone="no"?><!DOCTYPE svg PUBLIC "-//W3C//DTD SVG 1.1//EN" "http://www.w3.org/Graphics/SVG/1.1/DTD/svg11.dtd"><svg t="1528820200251" class="icon" style="" viewBox="0 0 1024 1024" version="1.1" xmlns="http://www.w3.org/2000/svg" p-id="30680" xmlns:xlink="http://www.w3.org/1999/xlink" width="200" height="200"><defs><style type="text/css"></style></defs><path d="M913.207396 982.036982l-122.81859-110.536732c69.597201-4.605697 124.865567-62.944528 124.865567-134.076962V199.58021c0-74.202899-60.385807-134.588706-134.588706-134.588706h-155.058471v-27.634183c0-20.981509-18.422789-37.357321-41.963018-37.357321h-143.288356c-23.54023 0-41.963018 16.375812-41.963018 37.357321v27.634183h-155.058471c-74.202899 0-134.588706 60.385807-134.588706 134.588706v537.843078c0 71.132434 55.268366 128.95952 124.865567 134.076962l-122.81859 110.536732c-9.211394 10.746627-7.676162 27.122439 3.582209 35.822088 4.605697 3.582209 10.234883 6.14093 16.375812 6.14093 7.164418 0 14.84058-3.070465 19.958021-9.211394l144.311844-136.635682c1.535232-2.046977 3.070465-4.093953 4.093953-6.652674h427.306347c1.023488 2.558721 2.046977 4.605697 4.093953 6.652674l144.311844 136.635682c5.117441 6.14093 12.281859 9.211394 19.958021 9.211394 5.629185 0 11.770115-2.046977 16.375812-6.14093 9.723138-8.69965 11.258371-25.075462 2.046976-35.822088z m-464.151924-940.585708h125.377312v24.051974h-125.377312v-24.051974z m-206.232883 778.874563c-46.056972 0-83.414293-37.357321-83.414293-83.414293v-537.331334c0-46.056972 37.357321-83.414293 83.414293-83.414293h537.843078c46.056972 0 83.414293 37.357321 83.414293 83.414293v537.843078c0 46.056972-37.357321 83.414293-83.414293 83.414293h-537.843078z" p-id="30681"></path><path d="M713.115442 922.162919h-402.230884c-14.328836 0-25.587206 11.258371-25.587207 25.587206s11.258371 25.587206 25.587207 25.587206h402.230884c14.328836 0 25.587206-11.258371 25.587207-25.587206s-11.258371-25.587206-25.587207-25.587206zM284.785607 641.215392c-30.192904 0-55.268366 24.563718-55.268366 55.268366s24.563718 55.268366 55.268366 55.268366 55.268366-24.563718 55.268366-55.268366-25.075462-55.268366-55.268366-55.268366zM737.67916 641.215392c-30.192904 0-55.268366 24.563718-55.268365 55.268366s24.563718 55.268366 55.268365 55.268366 55.268366-24.563718 55.268366-55.268366-24.563718-55.268366-55.268366-55.268366zM720.791604 206.232884h-417.071464c-56.291854 0-101.837081 47.08046-101.837082 104.907546V456.475762c0 57.827086 45.545227 104.907546 101.837082 104.907546h417.071464c56.291854 0 101.837081-47.08046 101.837082-104.907546v-145.335332c0-57.827086-45.545227-104.907546-101.837082-104.907546z m50.662669 250.754622c0 29.681159-23.028486 53.733133-50.662669 53.733134h-417.071464c-28.145927 0-50.662669-24.051974-50.662669-53.733134v-145.335332c0-29.681159 23.028486-53.733133 50.662669-53.733134h417.071464c28.145927 0 50.662669 24.051974 50.662669 53.733134v145.335332z" p-id="30682"></path></svg>