<?xml version="1.0" standalone="no"?><!DOCTYPE svg PUBLIC "-//W3C//DTD SVG 1.1//EN" "http://www.w3.org/Graphics/SVG/1.1/DTD/svg11.dtd"><svg t="1528820213471" class="icon" style="" viewBox="0 0 1024 1024" version="1.1" xmlns="http://www.w3.org/2000/svg" p-id="30795" xmlns:xlink="http://www.w3.org/1999/xlink" width="200" height="200"><defs><style type="text/css"></style></defs><path d="M608.2 556.4c61.3-34 102.9-99.3 102.9-174.3C711.1 272.3 621.8 183 512 183s-199.1 89.3-199.1 199.1c0 74.9 41.6 140.3 102.9 174.3-37.9 13.8-72.7 35.9-102 65.2-53 53-82.1 123.4-82.1 198.3 0 11.6 9.4 21 21 21s21-9.4 21-21c0-131.5 106.9-238.4 238.4-238.4s238.4 106.9 238.4 238.4c0 11.6 9.4 21 21 21s21-9.4 21-21c0-74.9-29.2-145.3-82.1-198.3-29.5-29.3-64.3-51.4-102.2-65.2zM354.9 382.2c0-86.6 70.5-157.1 157.1-157.1s157.1 70.5 157.1 157.1S598.6 539.3 512 539.3s-157.1-70.5-157.1-157.1z" fill="" p-id="30796"></path><path d="M875.9 621.7c-29.4-29.4-64.1-51.4-102-65.2 61.3-34 102.9-99.3 102.9-174.3 0-109.8-89.3-199.1-199.1-199.1-11.6 0-21 9.4-21 21s9.4 21 21 21c86.6 0 157.1 70.5 157.1 157.1s-70.5 157.1-157.1 157.1c-11.6 0-21 9.4-21 21v0.2c0 11.6 9.4 21 21 21 131.5 0 238.4 106.9 238.4 238.4 0 11.6 9.4 21 21 21s21-9.4 21-21c-0.1-74.9-29.3-145.3-82.2-198.2zM367.4 560.5v-0.1-0.1c0-11.6-9.4-21-21-21-86.6 0-157.1-70.5-157.1-157.1s70.5-157.1 157.1-157.1c11.6 0 21-9.4 21-21s-9.4-21-21-21c-109.8 0-199.1 89.3-199.1 199.1 0 74.9 41.6 140.3 102.9 174.3-37.9 13.8-72.7 35.9-102 65.2C95.2 674.6 66 745 66 819.9c0 11.6 9.4 21 21 21s21-9.4 21-21c0-131.5 106.9-238.4 238.4-238.4 11.6 0 21-9.4 21-21z" fill="" p-id="30797"></path></svg>